<?xml version="1.0" encoding="utf-8"?>
<!-- Generator: Adobe Illustrator 24.1.2, SVG Export Plug-In . SVG Version: 6.00 Build 0)  -->
<svg version="1.1" id="Layer_1" xmlns="http://www.w3.org/2000/svg" xmlns:xlink="http://www.w3.org/1999/xlink" x="0px" y="0px"
	 viewBox="0 0 313.1 120.8" style="enable-background:new 0 0 313.1 120.8;" xml:space="preserve">
<style type="text/css">
	.st0{fill:#F57A7C;}
	.st1{fill:#FFFFFF;}
</style>
<path class="st0" d="M243.1,120.8l-8-3.2c-17-11.8-21.5-25.7-13.7-43.1c3.8-8.4,10.6-13.9,18.7-18c-12.9-13.9-13.3-29.2-1.4-41.9
	c1.8-1.9,3.7-3.8,5.6-5.7c10.8-6,22.2-9.9,34.6-8.9c6.7,0.6,13.3,2.2,19.7,4.6c7.7,2.8,11.8,9.5,14.6,17.1v14
	c-3.8,9-9.5,16.2-19.1,20.3c7.8,4.8,12.8,11,14,19.6c2.5,16.2-5.9,32.1-20.8,39c-5.4,2.6-11.4,4.1-17.1,6.1L243.1,120.8z
	 M264.9,69.7c-9.6,0-16.1,6.4-16,15.8c0.1,6.8,3.9,10.4,11.1,10.4c9.8,0,17-6.7,16.8-15.8C276.7,73.7,272.2,69.7,264.9,69.7z
	 M259.9,39.1c-0.1,6.5,2.6,9.6,8.5,9.7c7.2,0.2,12.9-5.7,13.2-13.4c0.2-6.1-3.4-10.4-8.8-10.5C265.6,24.8,260.1,30.9,259.9,39.1z"/>
<path class="st1" d="M102.9,30.3c-5.2,29.2-10.4,58.2-15.6,87.4H56.8l1.4-9.8c-5.5,3.2-10.8,7.8-16.9,9.5C22,122.7,3.3,116,0.5,90.9
	C-1.4,74.3,2,58.4,12.9,45C23,32.7,36,27,52.1,29.9c7.9,1.4,12.2,4.5,17.5,12.7c0.5-2.3,1-4.2,1.4-6.2s0.7-3.9,1-6.1L102.9,30.3z
	 M64.5,70c0.3-9.3-5.6-14.7-14.8-13.6c-11.5,1.4-20.1,14.3-17.2,25.9c1.6,6.3,5.7,9.5,12.2,9.6C55.9,92.1,64.1,83,64.5,70z"/>
<path class="st1" d="M197.5,64.6h-32.2c-1.4-5-3.7-9.3-10.3-8.9c-6.8,0.4-10.8,4.4-12.8,10.1c-1.6,4.7-2.6,9.5-3,14.5
	c-0.6,4.9,1,9.3,6,11.4c5.2,2,11.1,0,14-4.8c2-3.6,4.5-4.1,8-4c8.8,0.2,17.6,0.1,28.1,0.1c-3.6,6.1-6.1,11.8-9.9,16.6
	c-13.2,16.4-30.6,22.3-51,18.3c-16.8-3.3-26.9-16-27.2-33.2c-0.4-24.1,10.8-43.2,30.6-51.4c11-4.5,22.5-5.7,34.1-2.7
	C188.5,35,197.6,46.9,197.5,64.6z"/>
<path class="st1" d="M244.2,9c-1.9,1.9-3.8,3.7-5.6,5.7c-12,12.6-11.5,28,1.4,41.9c-8,4.2-14.9,9.6-18.7,18
	c-7.8,17.4-3.3,31.3,13.7,43.1c-18.4,0.3-28.9-12.5-25.5-31.1c1.8-10.1,3.6-20.2,5.4-30.6h-11.3l4.5-25.9h11.3
	c1.3-7.1,2.5-13.9,3.9-21L244.2,9z"/>
</svg>
