<svg id="Layer_1" data-name="Layer 1" xmlns="http://www.w3.org/2000/svg" viewBox="0 0 313.11 120.85"><defs><style>.cls-1{fill:#0f8684;}.cls-2{fill:#08070a;}.cls-3{fill:#09080a;}.cls-4{fill:#080d0f;}</style></defs><path class="cls-1" d="M247,124l-8-3.15c-17-11.82-21.51-25.7-13.74-43.1,3.77-8.44,10.64-13.87,18.67-18-12.85-13.93-13.3-29.24-1.35-41.88,1.82-1.92,3.71-3.78,5.57-5.66,10.77-6,22.25-9.88,34.64-8.85a75,75,0,0,1,19.66,4.57C310.14,10.76,314.27,17.47,317,25V39c-3.8,9-9.49,16.21-19.14,20.31,7.77,4.8,12.82,11,14,19.61a36.71,36.71,0,0,1-20.81,39c-5.43,2.6-11.37,4.11-17.08,6.12Zm21.75-51.11c-9.58,0-16.08,6.41-16,15.8.05,6.8,3.92,10.41,11.15,10.4,9.8,0,17-6.73,16.82-15.81C280.62,76.82,276.09,72.89,268.75,72.89Zm-4.91-30.62c-.1,6.54,2.57,9.59,8.49,9.73,7.18.16,12.94-5.66,13.22-13.36.22-6.07-3.39-10.36-8.84-10.52C269.45,27.92,264,34,263.84,42.27Z" transform="translate(-3.89 -3.15)"/><path class="cls-2" d="M106.78,33.42c-5.2,29.25-10.36,58.24-15.55,87.41H60.67l1.38-9.75c-5.53,3.2-10.8,7.79-16.87,9.46-19.25,5.29-38-1.38-40.8-26.45C2.5,77.46,5.92,61.55,16.83,48.2,26.92,35.86,39.89,30.11,56,33c7.91,1.4,12.2,4.47,17.46,12.69.52-2.29,1-4.22,1.38-6.17s.65-3.9,1-6.06ZM68.42,73.2c.3-9.25-5.63-14.74-14.75-13.63C42.13,61,33.59,73.85,36.51,85.44c1.58,6.27,5.67,9.49,12.18,9.6C59.78,95.24,68,86.14,68.42,73.2Z" transform="translate(-3.89 -3.15)"/><path class="cls-3" d="M201.37,67.77H169.2c-1.43-5-3.74-9.29-10.31-8.91-6.75.38-10.75,4.4-12.84,10.12a63.6,63.6,0,0,0-3,14.46c-.57,4.93,1,9.35,6,11.44a11.57,11.57,0,0,0,14-4.81c2-3.58,4.51-4.07,8-4,8.81.17,17.63.06,28.14.06-3.6,6.1-6.12,11.84-9.91,16.56-13.18,16.37-30.55,22.3-51,18.32-16.81-3.27-26.93-16-27.23-33.19-.43-24.1,10.85-43.23,30.58-51.38,11-4.55,22.47-5.72,34.14-2.66C192.43,38.15,201.44,50.07,201.37,67.77Z" transform="translate(-3.89 -3.15)"/><path class="cls-4" d="M248.12,12.17c-1.86,1.88-3.75,3.74-5.57,5.66-12,12.64-11.5,28,1.35,41.88-8,4.17-14.9,9.6-18.67,18-7.77,17.4-3.3,31.28,13.74,43.1-18.4.26-28.86-12.51-25.52-31.14,1.8-10.09,3.59-20.17,5.44-30.59H207.62l4.51-25.9h11.32c1.3-7.09,2.54-13.88,3.85-21Z" transform="translate(-3.89 -3.15)"/></svg>